<svg width="22" height="22" xmlns="http://www.w3.org/2000/svg" xmlns:xlink="http://www.w3.org/1999/xlink" xmlns:svgjs="http://svgjs.com/svgjs" fill="#fff"><svg xmlns="http://www.w3.org/2000/svg" width="22" height="22"><path paint-order="stroke fill markers" fill-rule="evenodd" d="M11.001 0C8.013 0 7.638.013 6.465.066c-1.17.054-1.97.24-2.67.511a5.387 5.387 0 0 0-1.948 1.269 5.398 5.398 0 0 0-1.27 1.948c-.273.7-.458 1.5-.511 2.67C.014 7.637 0 8.012 0 11c0 2.987.013 3.361.066 4.535.054 1.17.24 1.97.511 2.67a5.39 5.39 0 0 0 1.269 1.948 5.386 5.386 0 0 0 1.948 1.27c.7.271 1.5.457 2.67.51C7.638 21.988 8.012 22 11 22c2.988 0 3.362-.013 4.535-.066 1.171-.054 1.972-.24 2.671-.512a5.379 5.379 0 0 0 1.948-1.27 5.4 5.4 0 0 0 1.27-1.948c.27-.7.455-1.499.51-2.67.053-1.173.067-1.547.067-4.534 0-2.988-.014-3.362-.067-4.536-.055-1.17-.24-1.97-.51-2.67a5.397 5.397 0 0 0-1.27-1.948A5.374 5.374 0 0 0 18.205.577c-.701-.272-1.501-.457-2.672-.51C14.359.012 13.986 0 10.998 0H11zm-.987 1.982h.987c2.937 0 3.285.01 4.445.063 1.072.05 1.655.229 2.042.38.514.198.88.437 1.264.822.385.385.624.752.824 1.265.15.387.33.97.378 2.042.053 1.16.065 1.508.065 4.443 0 2.936-.012 3.284-.065 4.444-.049 1.072-.228 1.654-.378 2.042-.2.513-.439.879-.824 1.263a3.4 3.4 0 0 1-1.264.823c-.387.151-.97.33-2.042.38-1.16.052-1.508.063-4.445.063-2.937 0-3.285-.011-4.445-.064-1.073-.05-1.655-.229-2.043-.38-.513-.199-.88-.437-1.265-.822a3.41 3.41 0 0 1-.823-1.264c-.15-.388-.33-.97-.379-2.042-.052-1.16-.063-1.508-.063-4.445 0-2.938.01-3.284.063-4.444.05-1.072.229-1.655.38-2.042.199-.513.437-.88.822-1.265a3.418 3.418 0 0 1 1.265-.824c.388-.15.97-.33 2.043-.379 1.015-.046 1.408-.06 3.458-.062v.003zm6.859 1.827a1.32 1.32 0 1 0 0 2.64 1.32 1.32 0 0 0 0-2.64zM11 5.35a5.65 5.65 0 1 0 0 11.298 5.65 5.65 0 0 0 0-11.298zm0 1.982a3.667 3.667 0 1 1 0 7.334 3.667 3.667 0 0 1 0-7.334z"/></svg></svg>